<svg id="visual" viewBox="0 0 1190 850" width="1190" height="850" xmlns="http://www.w3.org/2000/svg" xmlns:xlink="http://www.w3.org/1999/xlink" version="1.1"><rect x="0" y="0" width="1190" height="850" fill="#001220"></rect><path d="M0 190L28.3 195C56.7 200 113.3 210 170 237.7C226.7 265.3 283.3 310.7 340 320C396.7 329.3 453.3 302.7 510 305.7C566.7 308.7 623.3 341.3 680 341.8C736.7 342.3 793.3 310.7 850 295.2C906.7 279.7 963.3 280.3 1020 287.8C1076.7 295.3 1133.3 309.7 1161.7 316.8L1190 324L1190 851L1161.7 851C1133.3 851 1076.7 851 1020 851C963.3 851 906.7 851 850 851C793.3 851 736.7 851 680 851C623.3 851 566.7 851 510 851C453.3 851 396.7 851 340 851C283.3 851 226.7 851 170 851C113.3 851 56.7 851 28.3 851L0 851Z" fill="#fa7268"></path><path d="M0 443L28.3 435.7C56.7 428.3 113.3 413.7 170 391.5C226.7 369.3 283.3 339.7 340 354C396.7 368.3 453.3 426.7 510 462C566.7 497.3 623.3 509.7 680 482.2C736.7 454.7 793.3 387.3 850 373.3C906.7 359.3 963.3 398.7 1020 396.2C1076.7 393.7 1133.3 349.3 1161.7 327.2L1190 305L1190 851L1161.7 851C1133.3 851 1076.7 851 1020 851C963.3 851 906.7 851 850 851C793.3 851 736.7 851 680 851C623.3 851 566.7 851 510 851C453.3 851 396.7 851 340 851C283.3 851 226.7 851 170 851C113.3 851 56.7 851 28.3 851L0 851Z" fill="#f56a67"></path><path d="M0 485L28.3 481.3C56.7 477.7 113.3 470.3 170 475.2C226.7 480 283.3 497 340 473.3C396.7 449.7 453.3 385.3 510 358.8C566.7 332.3 623.3 343.7 680 345.7C736.7 347.7 793.3 340.3 850 344.8C906.7 349.3 963.3 365.7 1020 399.7C1076.7 433.7 1133.3 485.3 1161.7 511.2L1190 537L1190 851L1161.7 851C1133.3 851 1076.7 851 1020 851C963.3 851 906.7 851 850 851C793.3 851 736.7 851 680 851C623.3 851 566.7 851 510 851C453.3 851 396.7 851 340 851C283.3 851 226.7 851 170 851C113.3 851 56.7 851 28.3 851L0 851Z" fill="#f06167"></path><path d="M0 441L28.3 457.5C56.7 474 113.3 507 170 507.2C226.7 507.3 283.3 474.7 340 465.5C396.7 456.3 453.3 470.7 510 485.8C566.7 501 623.3 517 680 528.2C736.7 539.3 793.3 545.7 850 540.7C906.7 535.7 963.3 519.3 1020 508.7C1076.7 498 1133.3 493 1161.7 490.5L1190 488L1190 851L1161.7 851C1133.3 851 1076.7 851 1020 851C963.3 851 906.7 851 850 851C793.3 851 736.7 851 680 851C623.3 851 566.7 851 510 851C453.3 851 396.7 851 340 851C283.3 851 226.7 851 170 851C113.3 851 56.7 851 28.3 851L0 851Z" fill="#eb5967"></path><path d="M0 534L28.3 539.7C56.7 545.3 113.3 556.7 170 554.3C226.7 552 283.3 536 340 538C396.7 540 453.3 560 510 567.7C566.7 575.3 623.3 570.7 680 567.5C736.7 564.3 793.3 562.7 850 557.2C906.7 551.7 963.3 542.3 1020 551.3C1076.7 560.3 1133.3 587.7 1161.7 601.3L1190 615L1190 851L1161.7 851C1133.3 851 1076.7 851 1020 851C963.3 851 906.7 851 850 851C793.3 851 736.7 851 680 851C623.3 851 566.7 851 510 851C453.3 851 396.7 851 340 851C283.3 851 226.7 851 170 851C113.3 851 56.7 851 28.3 851L0 851Z" fill="#e65067"></path><path d="M0 513L28.3 511C56.7 509 113.3 505 170 505.8C226.7 506.7 283.3 512.3 340 541C396.7 569.7 453.3 621.3 510 622.5C566.7 623.7 623.3 574.3 680 568.8C736.7 563.3 793.3 601.7 850 607.5C906.7 613.3 963.3 586.7 1020 587.2C1076.7 587.7 1133.3 615.3 1161.7 629.2L1190 643L1190 851L1161.7 851C1133.3 851 1076.7 851 1020 851C963.3 851 906.7 851 850 851C793.3 851 736.7 851 680 851C623.3 851 566.7 851 510 851C453.3 851 396.7 851 340 851C283.3 851 226.7 851 170 851C113.3 851 56.7 851 28.3 851L0 851Z" fill="#e04867"></path><path d="M0 594L28.3 610.5C56.7 627 113.3 660 170 658C226.7 656 283.3 619 340 598C396.7 577 453.3 572 510 591.8C566.7 611.7 623.3 656.3 680 680.5C736.7 704.7 793.3 708.3 850 695.3C906.7 682.3 963.3 652.7 1020 649.2C1076.7 645.7 1133.3 668.3 1161.7 679.7L1190 691L1190 851L1161.7 851C1133.3 851 1076.7 851 1020 851C963.3 851 906.7 851 850 851C793.3 851 736.7 851 680 851C623.3 851 566.7 851 510 851C453.3 851 396.7 851 340 851C283.3 851 226.7 851 170 851C113.3 851 56.7 851 28.3 851L0 851Z" fill="#da3f67"></path><path d="M0 671L28.3 668.3C56.7 665.7 113.3 660.3 170 663.3C226.7 666.3 283.3 677.7 340 671.3C396.7 665 453.3 641 510 633.3C566.7 625.7 623.3 634.3 680 649.5C736.7 664.7 793.3 686.3 850 703.2C906.7 720 963.3 732 1020 719.7C1076.7 707.3 1133.3 670.7 1161.7 652.3L1190 634L1190 851L1161.7 851C1133.3 851 1076.7 851 1020 851C963.3 851 906.7 851 850 851C793.3 851 736.7 851 680 851C623.3 851 566.7 851 510 851C453.3 851 396.7 851 340 851C283.3 851 226.7 851 170 851C113.3 851 56.7 851 28.3 851L0 851Z" fill="#d43667"></path><path d="M0 697L28.3 711C56.7 725 113.3 753 170 756.5C226.7 760 283.3 739 340 739.2C396.7 739.3 453.3 760.7 510 768.5C566.7 776.3 623.3 770.7 680 764.3C736.7 758 793.3 751 850 737C906.7 723 963.3 702 1020 696.3C1076.7 690.7 1133.3 700.3 1161.7 705.2L1190 710L1190 851L1161.7 851C1133.3 851 1076.7 851 1020 851C963.3 851 906.7 851 850 851C793.3 851 736.7 851 680 851C623.3 851 566.7 851 510 851C453.3 851 396.7 851 340 851C283.3 851 226.7 851 170 851C113.3 851 56.7 851 28.3 851L0 851Z" fill="#cd2d68"></path><path d="M0 739L28.3 741C56.7 743 113.3 747 170 748.7C226.7 750.3 283.3 749.7 340 753.7C396.7 757.7 453.3 766.3 510 766.2C566.7 766 623.3 757 680 759C736.7 761 793.3 774 850 774.3C906.7 774.7 963.3 762.3 1020 764.8C1076.7 767.3 1133.3 784.7 1161.7 793.3L1190 802L1190 851L1161.7 851C1133.3 851 1076.7 851 1020 851C963.3 851 906.7 851 850 851C793.3 851 736.7 851 680 851C623.3 851 566.7 851 510 851C453.3 851 396.7 851 340 851C283.3 851 226.7 851 170 851C113.3 851 56.7 851 28.3 851L0 851Z" fill="#c62368"></path></svg>