<svg id="visual" viewBox="0 0 1190 850" width="1190" height="850" xmlns="http://www.w3.org/2000/svg" xmlns:xlink="http://www.w3.org/1999/xlink" version="1.1"><rect x="0" y="0" width="1190" height="850" fill="#080d13"></rect><g fill="none" stroke="#FF0066" stroke-width="4"><path d="M0 -34.9L7.8 -10.8L33.2 -10.8L12.7 4.1L20.5 28.3L0 13.3L-20.5 28.3L-12.7 4.1L-33.2 -10.8L-7.8 -10.8Z" transform="translate(183 189)"></path><path d="M0 -17.9L4 -5.5L17.1 -5.5L6.5 2.1L10.5 14.5L0 6.8L-10.5 14.5L-6.5 2.1L-17.1 -5.5L-4 -5.5Z" transform="translate(310 12)"></path><path d="M0 -30.2L6.8 -9.3L28.7 -9.3L11 3.6L17.8 24.4L0 11.5L-17.8 24.4L-11 3.6L-28.7 -9.3L-6.8 -9.3Z" transform="translate(372 310)"></path><path d="M0 -31.1L7 -9.6L29.6 -9.6L11.3 3.7L18.3 25.2L0 11.9L-18.3 25.2L-11.3 3.7L-29.6 -9.6L-7 -9.6Z" transform="translate(806 112)"></path><path d="M0 -17.9L4 -5.5L17.1 -5.5L6.5 2.1L10.5 14.5L0 6.8L-10.5 14.5L-6.5 2.1L-17.1 -5.5L-4 -5.5Z" transform="translate(160 604)"></path><path d="M0 -32.1L7.2 -9.9L30.5 -9.9L11.7 3.8L18.9 26L0 12.3L-18.9 26L-11.7 3.8L-30.5 -9.9L-7.2 -9.9Z" transform="translate(943 768)"></path><path d="M0 -33L7.4 -10.2L31.4 -10.2L12 3.9L19.4 26.7L0 12.6L-19.4 26.7L-12 3.9L-31.4 -10.2L-7.4 -10.2Z" transform="translate(478 288)"></path><path d="M0 -18.9L4.2 -5.8L18 -5.8L6.9 2.2L11.1 15.3L0 7.2L-11.1 15.3L-6.9 2.2L-18 -5.8L-4.2 -5.8Z" transform="translate(445 183)"></path><path d="M0 -31.1L7 -9.6L29.6 -9.6L11.3 3.7L18.3 25.2L0 11.9L-18.3 25.2L-11.3 3.7L-29.6 -9.6L-7 -9.6Z" transform="translate(115 820)"></path><path d="M0 -28.3L6.4 -8.7L26.9 -8.7L10.3 3.3L16.6 22.9L0 10.8L-16.6 22.9L-10.3 3.3L-26.9 -8.7L-6.4 -8.7Z" transform="translate(160 320)"></path><path d="M0 -30.2L6.8 -9.3L28.7 -9.3L11 3.6L17.8 24.4L0 11.5L-17.8 24.4L-11 3.6L-28.7 -9.3L-6.8 -9.3Z" transform="translate(810 685)"></path><path d="M0 -20.8L4.7 -6.4L19.7 -6.4L7.5 2.5L12.2 16.8L0 7.9L-12.2 16.8L-7.5 2.5L-19.7 -6.4L-4.7 -6.4Z" transform="translate(1018 715)"></path><path d="M0 -29.3L6.6 -9L27.8 -9L10.6 3.5L17.2 23.7L0 11.2L-17.2 23.7L-10.6 3.5L-27.8 -9L-6.6 -9Z" transform="translate(1083 586)"></path><path d="M0 -28.3L6.4 -8.7L26.9 -8.7L10.3 3.3L16.6 22.9L0 10.8L-16.6 22.9L-10.3 3.3L-26.9 -8.7L-6.4 -8.7Z" transform="translate(593 724)"></path><path d="M0 -20.8L4.7 -6.4L19.7 -6.4L7.5 2.5L12.2 16.8L0 7.9L-12.2 16.8L-7.5 2.5L-19.7 -6.4L-4.7 -6.4Z" transform="translate(400 4)"></path><path d="M0 -30.2L6.8 -9.3L28.7 -9.3L11 3.6L17.8 24.4L0 11.5L-17.8 24.4L-11 3.6L-28.7 -9.3L-6.8 -9.3Z" transform="translate(1055 184)"></path><path d="M0 -29.3L6.6 -9L27.8 -9L10.6 3.5L17.2 23.7L0 11.2L-17.2 23.7L-10.6 3.5L-27.8 -9L-6.6 -9Z" transform="translate(487 572)"></path><path d="M0 -21.7L4.9 -6.7L20.6 -6.7L7.9 2.6L12.8 17.6L0 8.3L-12.8 17.6L-7.9 2.6L-20.6 -6.7L-4.9 -6.7Z" transform="translate(7 163)"></path><path d="M0 -17L3.8 -5.2L16.2 -5.2L6.2 2L10 13.7L0 6.5L-10 13.7L-6.2 2L-16.2 -5.2L-3.8 -5.2Z" transform="translate(284 413)"></path><path d="M0 -19.8L4.4 -6.1L18.9 -6.1L7.2 2.3L11.7 16L0 7.6L-11.7 16L-7.2 2.3L-18.9 -6.1L-4.4 -6.1Z" transform="translate(1181 474)"></path><path d="M0 -27.4L6.1 -8.5L26 -8.5L9.9 3.2L16.1 22.1L0 10.5L-16.1 22.1L-9.9 3.2L-26 -8.5L-6.1 -8.5Z" transform="translate(701 117)"></path><path d="M0 -25.5L5.7 -7.9L24.2 -7.9L9.3 3L15 20.6L0 9.7L-15 20.6L-9.3 3L-24.2 -7.9L-5.7 -7.9Z" transform="translate(804 758)"></path><path d="M0 -32.1L7.2 -9.9L30.5 -9.9L11.7 3.8L18.9 26L0 12.3L-18.9 26L-11.7 3.8L-30.5 -9.9L-7.2 -9.9Z" transform="translate(336 773)"></path><path d="M0 -22.7L5.1 -7L21.5 -7L8.2 2.7L13.3 18.3L0 8.7L-13.3 18.3L-8.2 2.7L-21.5 -7L-5.1 -7Z" transform="translate(314 247)"></path><path d="M0 -19.8L4.4 -6.1L18.9 -6.1L7.2 2.3L11.7 16L0 7.6L-11.7 16L-7.2 2.3L-18.9 -6.1L-4.4 -6.1Z" transform="translate(1026 302)"></path><path d="M0 -27.4L6.1 -8.5L26 -8.5L9.9 3.2L16.1 22.1L0 10.5L-16.1 22.1L-9.9 3.2L-26 -8.5L-6.1 -8.5Z" transform="translate(604 571)"></path><path d="M0 -31.1L7 -9.6L29.6 -9.6L11.3 3.7L18.3 25.2L0 11.9L-18.3 25.2L-11.3 3.7L-29.6 -9.6L-7 -9.6Z" transform="translate(907 180)"></path><path d="M0 -31.1L7 -9.6L29.6 -9.6L11.3 3.7L18.3 25.2L0 11.9L-18.3 25.2L-11.3 3.7L-29.6 -9.6L-7 -9.6Z" transform="translate(927 599)"></path><path d="M0 -25.5L5.7 -7.9L24.2 -7.9L9.3 3L15 20.6L0 9.7L-15 20.6L-9.3 3L-24.2 -7.9L-5.7 -7.9Z" transform="translate(609 458)"></path><path d="M0 -29.3L6.6 -9L27.8 -9L10.6 3.5L17.2 23.7L0 11.2L-17.2 23.7L-10.6 3.5L-27.8 -9L-6.6 -9Z" transform="translate(442 102)"></path><path d="M0 -31.1L7 -9.6L29.6 -9.6L11.3 3.7L18.3 25.2L0 11.9L-18.3 25.2L-11.3 3.7L-29.6 -9.6L-7 -9.6Z" transform="translate(913 510)"></path><path d="M0 -27.4L6.1 -8.5L26 -8.5L9.9 3.2L16.1 22.1L0 10.5L-16.1 22.1L-9.9 3.2L-26 -8.5L-6.1 -8.5Z" transform="translate(793 16)"></path><path d="M0 -31.1L7 -9.6L29.6 -9.6L11.3 3.7L18.3 25.2L0 11.9L-18.3 25.2L-11.3 3.7L-29.6 -9.6L-7 -9.6Z" transform="translate(648 53)"></path><path d="M0 -33L7.4 -10.2L31.4 -10.2L12 3.9L19.4 26.7L0 12.6L-19.4 26.7L-12 3.9L-31.4 -10.2L-7.4 -10.2Z" transform="translate(76 197)"></path><path d="M0 -32.1L7.2 -9.9L30.5 -9.9L11.7 3.8L18.9 26L0 12.3L-18.9 26L-11.7 3.8L-30.5 -9.9L-7.2 -9.9Z" transform="translate(112 742)"></path><path d="M0 -25.5L5.7 -7.9L24.2 -7.9L9.3 3L15 20.6L0 9.7L-15 20.6L-9.3 3L-24.2 -7.9L-5.7 -7.9Z" transform="translate(1002 401)"></path><path d="M0 -18.9L4.2 -5.8L18 -5.8L6.9 2.2L11.1 15.3L0 7.2L-11.1 15.3L-6.9 2.2L-18 -5.8L-4.2 -5.8Z" transform="translate(394 691)"></path><path d="M0 -33L7.4 -10.2L31.4 -10.2L12 3.9L19.4 26.7L0 12.6L-19.4 26.7L-12 3.9L-31.4 -10.2L-7.4 -10.2Z" transform="translate(27 82)"></path><path d="M0 -29.3L6.6 -9L27.8 -9L10.6 3.5L17.2 23.7L0 11.2L-17.2 23.7L-10.6 3.5L-27.8 -9L-6.6 -9Z" transform="translate(960 102)"></path><path d="M0 -28.3L6.4 -8.7L26.9 -8.7L10.3 3.3L16.6 22.9L0 10.8L-16.6 22.9L-10.3 3.3L-26.9 -8.7L-6.4 -8.7Z" transform="translate(1147 290)"></path><path d="M0 -18.9L4.2 -5.8L18 -5.8L6.9 2.2L11.1 15.3L0 7.2L-11.1 15.3L-6.9 2.2L-18 -5.8L-4.2 -5.8Z" transform="translate(81 397)"></path><path d="M0 -25.5L5.7 -7.9L24.2 -7.9L9.3 3L15 20.6L0 9.7L-15 20.6L-9.3 3L-24.2 -7.9L-5.7 -7.9Z" transform="translate(187 441)"></path><path d="M0 -25.5L5.7 -7.9L24.2 -7.9L9.3 3L15 20.6L0 9.7L-15 20.6L-9.3 3L-24.2 -7.9L-5.7 -7.9Z" transform="translate(1188 772)"></path><path d="M0 -17L3.8 -5.2L16.2 -5.2L6.2 2L10 13.7L0 6.5L-10 13.7L-6.2 2L-16.2 -5.2L-3.8 -5.2Z" transform="translate(33 306)"></path><path d="M0 -27.4L6.1 -8.5L26 -8.5L9.9 3.2L16.1 22.1L0 10.5L-16.1 22.1L-9.9 3.2L-26 -8.5L-6.1 -8.5Z" transform="translate(717 219)"></path><path d="M0 -30.2L6.8 -9.3L28.7 -9.3L11 3.6L17.8 24.4L0 11.5L-17.8 24.4L-11 3.6L-28.7 -9.3L-6.8 -9.3Z" transform="translate(36 773)"></path><path d="M0 -30.2L6.8 -9.3L28.7 -9.3L11 3.6L17.8 24.4L0 11.5L-17.8 24.4L-11 3.6L-28.7 -9.3L-6.8 -9.3Z" transform="translate(545 419)"></path><path d="M0 -30.2L6.8 -9.3L28.7 -9.3L11 3.6L17.8 24.4L0 11.5L-17.8 24.4L-11 3.6L-28.7 -9.3L-6.8 -9.3Z" transform="translate(635 819)"></path><path d="M0 -29.3L6.6 -9L27.8 -9L10.6 3.5L17.2 23.7L0 11.2L-17.2 23.7L-10.6 3.5L-27.8 -9L-6.6 -9Z" transform="translate(307 172)"></path><path d="M0 -18.9L4.2 -5.8L18 -5.8L6.9 2.2L11.1 15.3L0 7.2L-11.1 15.3L-6.9 2.2L-18 -5.8L-4.2 -5.8Z" transform="translate(722 662)"></path><path d="M0 -26.4L5.9 -8.2L25.1 -8.2L9.6 3.1L15.5 21.4L0 10.1L-15.5 21.4L-9.6 3.1L-25.1 -8.2L-5.9 -8.2Z" transform="translate(557 149)"></path><path d="M0 -30.2L6.8 -9.3L28.7 -9.3L11 3.6L17.8 24.4L0 11.5L-17.8 24.4L-11 3.6L-28.7 -9.3L-6.8 -9.3Z" transform="translate(946 274)"></path><path d="M0 -24.5L5.5 -7.6L23.3 -7.6L8.9 2.9L14.4 19.9L0 9.4L-14.4 19.9L-8.9 2.9L-23.3 -7.6L-5.5 -7.6Z" transform="translate(1021 627)"></path><path d="M0 -25.5L5.7 -7.9L24.2 -7.9L9.3 3L15 20.6L0 9.7L-15 20.6L-9.3 3L-24.2 -7.9L-5.7 -7.9Z" transform="translate(502 830)"></path><path d="M0 -23.6L5.3 -7.3L22.4 -7.3L8.6 2.8L13.9 19.1L0 9L-13.9 19.1L-8.6 2.8L-22.4 -7.3L-5.3 -7.3Z" transform="translate(412 448)"></path><path d="M0 -23.6L5.3 -7.3L22.4 -7.3L8.6 2.8L13.9 19.1L0 9L-13.9 19.1L-8.6 2.8L-22.4 -7.3L-5.3 -7.3Z" transform="translate(322 577)"></path><path d="M0 -26.4L5.9 -8.2L25.1 -8.2L9.6 3.1L15.5 21.4L0 10.1L-15.5 21.4L-9.6 3.1L-25.1 -8.2L-5.9 -8.2Z" transform="translate(589 228)"></path><path d="M0 -21.7L4.9 -6.7L20.6 -6.7L7.9 2.6L12.8 17.6L0 8.3L-12.8 17.6L-7.9 2.6L-20.6 -6.7L-4.9 -6.7Z" transform="translate(1069 112)"></path><path d="M0 -33L7.4 -10.2L31.4 -10.2L12 3.9L19.4 26.7L0 12.6L-19.4 26.7L-12 3.9L-31.4 -10.2L-7.4 -10.2Z" transform="translate(569 18)"></path><path d="M0 -28.3L6.4 -8.7L26.9 -8.7L10.3 3.3L16.6 22.9L0 10.8L-16.6 22.9L-10.3 3.3L-26.9 -8.7L-6.4 -8.7Z" transform="translate(765 496)"></path><path d="M0 -20.8L4.7 -6.4L19.7 -6.4L7.5 2.5L12.2 16.8L0 7.9L-12.2 16.8L-7.5 2.5L-19.7 -6.4L-4.7 -6.4Z" transform="translate(1074 848)"></path><path d="M0 -31.1L7 -9.6L29.6 -9.6L11.3 3.7L18.3 25.2L0 11.9L-18.3 25.2L-11.3 3.7L-29.6 -9.6L-7 -9.6Z" transform="translate(1081 1)"></path><path d="M0 -29.3L6.6 -9L27.8 -9L10.6 3.5L17.2 23.7L0 11.2L-17.2 23.7L-10.6 3.5L-27.8 -9L-6.6 -9Z" transform="translate(257 814)"></path><path d="M0 -32.1L7.2 -9.9L30.5 -9.9L11.7 3.8L18.9 26L0 12.3L-18.9 26L-11.7 3.8L-30.5 -9.9L-7.2 -9.9Z" transform="translate(826 209)"></path><path d="M0 -28.3L6.4 -8.7L26.9 -8.7L10.3 3.3L16.6 22.9L0 10.8L-16.6 22.9L-10.3 3.3L-26.9 -8.7L-6.4 -8.7Z" transform="translate(131 125)"></path><path d="M0 -28.3L6.4 -8.7L26.9 -8.7L10.3 3.3L16.6 22.9L0 10.8L-16.6 22.9L-10.3 3.3L-26.9 -8.7L-6.4 -8.7Z" transform="translate(26 478)"></path><path d="M0 -32.1L7.2 -9.9L30.5 -9.9L11.7 3.8L18.9 26L0 12.3L-18.9 26L-11.7 3.8L-30.5 -9.9L-7.2 -9.9Z" transform="translate(265 89)"></path><path d="M0 -17L3.8 -5.2L16.2 -5.2L6.2 2L10 13.7L0 6.5L-10 13.7L-6.2 2L-16.2 -5.2L-3.8 -5.2Z" transform="translate(858 569)"></path><path d="M0 -26.4L5.9 -8.2L25.1 -8.2L9.6 3.1L15.5 21.4L0 10.1L-15.5 21.4L-9.6 3.1L-25.1 -8.2L-5.9 -8.2Z" transform="translate(634 374)"></path><path d="M0 -22.7L5.1 -7L21.5 -7L8.2 2.7L13.3 18.3L0 8.7L-13.3 18.3L-8.2 2.7L-21.5 -7L-5.1 -7Z" transform="translate(887 410)"></path><path d="M0 -17.9L4 -5.5L17.1 -5.5L6.5 2.1L10.5 14.5L0 6.8L-10.5 14.5L-6.5 2.1L-17.1 -5.5L-4 -5.5Z" transform="translate(511 752)"></path><path d="M0 -17.9L4 -5.5L17.1 -5.5L6.5 2.1L10.5 14.5L0 6.8L-10.5 14.5L-6.5 2.1L-17.1 -5.5L-4 -5.5Z" transform="translate(656 290)"></path><path d="M0 -27.4L6.1 -8.5L26 -8.5L9.9 3.2L16.1 22.1L0 10.5L-16.1 22.1L-9.9 3.2L-26 -8.5L-6.1 -8.5Z" transform="translate(91 647)"></path><path d="M0 -27.4L6.1 -8.5L26 -8.5L9.9 3.2L16.1 22.1L0 10.5L-16.1 22.1L-9.9 3.2L-26 -8.5L-6.1 -8.5Z" transform="translate(300 669)"></path><path d="M0 -32.1L7.2 -9.9L30.5 -9.9L11.7 3.8L18.9 26L0 12.3L-18.9 26L-11.7 3.8L-30.5 -9.9L-7.2 -9.9Z" transform="translate(1044 490)"></path><path d="M0 -24.5L5.5 -7.6L23.3 -7.6L8.9 2.9L14.4 19.9L0 9.4L-14.4 19.9L-8.9 2.9L-23.3 -7.6L-5.5 -7.6Z" transform="translate(101 487)"></path><path d="M0 -23.6L5.3 -7.3L22.4 -7.3L8.6 2.8L13.9 19.1L0 9L-13.9 19.1L-8.6 2.8L-22.4 -7.3L-5.3 -7.3Z" transform="translate(717 784)"></path><path d="M0 -30.2L6.8 -9.3L28.7 -9.3L11 3.6L17.8 24.4L0 11.5L-17.8 24.4L-11 3.6L-28.7 -9.3L-6.8 -9.3Z" transform="translate(145 12)"></path><path d="M0 -17L3.8 -5.2L16.2 -5.2L6.2 2L10 13.7L0 6.5L-10 13.7L-6.2 2L-16.2 -5.2L-3.8 -5.2Z" transform="translate(514 641)"></path><path d="M0 -26.4L5.9 -8.2L25.1 -8.2L9.6 3.1L15.5 21.4L0 10.1L-15.5 21.4L-9.6 3.1L-25.1 -8.2L-5.9 -8.2Z" transform="translate(412 573)"></path><path d="M0 -22.7L5.1 -7L21.5 -7L8.2 2.7L13.3 18.3L0 8.7L-13.3 18.3L-8.2 2.7L-21.5 -7L-5.1 -7Z" transform="translate(1145 389)"></path><path d="M0 -24.5L5.5 -7.6L23.3 -7.6L8.9 2.9L14.4 19.9L0 9.4L-14.4 19.9L-8.9 2.9L-23.3 -7.6L-5.5 -7.6Z" transform="translate(219 530)"></path><path d="M0 -32.1L7.2 -9.9L30.5 -9.9L11.7 3.8L18.9 26L0 12.3L-18.9 26L-11.7 3.8L-30.5 -9.9L-7.2 -9.9Z" transform="translate(1140 145)"></path><path d="M0 -27.4L6.1 -8.5L26 -8.5L9.9 3.2L16.1 22.1L0 10.5L-16.1 22.1L-9.9 3.2L-26 -8.5L-6.1 -8.5Z" transform="translate(1133 681)"></path><path d="M0 -23.6L5.3 -7.3L22.4 -7.3L8.6 2.8L13.9 19.1L0 9L-13.9 19.1L-8.6 2.8L-22.4 -7.3L-5.3 -7.3Z" transform="translate(552 301)"></path><path d="M0 -27.4L6.1 -8.5L26 -8.5L9.9 3.2L16.1 22.1L0 10.5L-16.1 22.1L-9.9 3.2L-26 -8.5L-6.1 -8.5Z" transform="translate(415 801)"></path><path d="M0 -33L7.4 -10.2L31.4 -10.2L12 3.9L19.4 26.7L0 12.6L-19.4 26.7L-12 3.9L-31.4 -10.2L-7.4 -10.2Z" transform="translate(841 284)"></path><path d="M0 -19.8L4.4 -6.1L18.9 -6.1L7.2 2.3L11.7 16L0 7.6L-11.7 16L-7.2 2.3L-18.9 -6.1L-4.4 -6.1Z" transform="translate(201 764)"></path><path d="M0 -26.4L5.9 -8.2L25.1 -8.2L9.6 3.1L15.5 21.4L0 10.1L-15.5 21.4L-9.6 3.1L-25.1 -8.2L-5.9 -8.2Z" transform="translate(91 568)"></path><path d="M0 -29.3L6.6 -9L27.8 -9L10.6 3.5L17.2 23.7L0 11.2L-17.2 23.7L-10.6 3.5L-27.8 -9L-6.6 -9Z" transform="translate(509 500)"></path><path d="M0 -28.3L6.4 -8.7L26.9 -8.7L10.3 3.3L16.6 22.9L0 10.8L-16.6 22.9L-10.3 3.3L-26.9 -8.7L-6.4 -8.7Z" transform="translate(804 365)"></path><path d="M0 -25.5L5.7 -7.9L24.2 -7.9L9.3 3L15 20.6L0 9.7L-15 20.6L-9.3 3L-24.2 -7.9L-5.7 -7.9Z" transform="translate(1182 606)"></path><path d="M0 -26.4L5.9 -8.2L25.1 -8.2L9.6 3.1L15.5 21.4L0 10.1L-15.5 21.4L-9.6 3.1L-25.1 -8.2L-5.9 -8.2Z" transform="translate(8 671)"></path><path d="M0 -32.1L7.2 -9.9L30.5 -9.9L11.7 3.8L18.9 26L0 12.3L-18.9 26L-11.7 3.8L-30.5 -9.9L-7.2 -9.9Z" transform="translate(784 846)"></path><path d="M0 -26.4L5.9 -8.2L25.1 -8.2L9.6 3.1L15.5 21.4L0 10.1L-15.5 21.4L-9.6 3.1L-25.1 -8.2L-5.9 -8.2Z" transform="translate(368 103)"></path><path d="M0 -18.9L4.2 -5.8L18 -5.8L6.9 2.2L11.1 15.3L0 7.2L-11.1 15.3L-6.9 2.2L-18 -5.8L-4.2 -5.8Z" transform="translate(244 291)"></path><path d="M0 -17L3.8 -5.2L16.2 -5.2L6.2 2L10 13.7L0 6.5L-10 13.7L-6.2 2L-16.2 -5.2L-3.8 -5.2Z" transform="translate(1186 219)"></path></g></svg>