<svg id="visual" viewBox="0 0 1190 850" width="1190" height="850" xmlns="http://www.w3.org/2000/svg" xmlns:xlink="http://www.w3.org/1999/xlink" version="1.1"><rect x="0" y="0" width="1190" height="850" fill="#080d13"></rect><g fill="none" stroke="#FF0066" stroke-width="4"><path d="M0 -92.5L20.8 -28.6L88 -28.6L33.6 10.9L54.4 74.8L0 35.3L-54.4 74.8L-33.6 10.9L-88 -28.6L-20.8 -28.6Z" transform="translate(356 558)"></path><path d="M0 -34.9L7.8 -10.8L33.2 -10.8L12.7 4.1L20.5 28.3L0 13.3L-20.5 28.3L-12.7 4.1L-33.2 -10.8L-7.8 -10.8Z" transform="translate(1171 676)"></path><path d="M0 -83.1L18.6 -25.7L79 -25.7L30.2 9.8L48.8 67.2L0 31.7L-48.8 67.2L-30.2 9.8L-79 -25.7L-18.6 -25.7Z" transform="translate(368 56)"></path><path d="M0 -62.3L14 -19.2L59.2 -19.2L22.6 7.4L36.6 50.4L0 23.8L-36.6 50.4L-22.6 7.4L-59.2 -19.2L-14 -19.2Z" transform="translate(593 245)"></path><path d="M0 -37.8L8.5 -11.7L35.9 -11.7L13.7 4.5L22.2 30.5L0 14.4L-22.2 30.5L-13.7 4.5L-35.9 -11.7L-8.5 -11.7Z" transform="translate(147 201)"></path><path d="M0 -69.8L15.7 -21.6L66.4 -21.6L25.4 8.2L41.1 56.5L0 26.7L-41.1 56.5L-25.4 8.2L-66.4 -21.6L-15.7 -21.6Z" transform="translate(784 526)"></path><path d="M0 -40.6L9.1 -12.5L38.6 -12.5L14.7 4.8L23.9 32.8L0 15.5L-23.9 32.8L-14.7 4.8L-38.6 -12.5L-9.1 -12.5Z" transform="translate(387 320)"></path><path d="M0 -52.9L11.9 -16.3L50.3 -16.3L19.2 6.2L31.1 42.8L0 20.2L-31.1 42.8L-19.2 6.2L-50.3 -16.3L-11.9 -16.3Z" transform="translate(1136 131)"></path><path d="M0 -81.2L18.2 -25.1L77.2 -25.1L29.5 9.6L47.7 65.7L0 31L-47.7 65.7L-29.5 9.6L-77.2 -25.1L-18.2 -25.1Z" transform="translate(10 833)"></path><path d="M0 -84.9L19.1 -26.2L80.8 -26.2L30.9 10L49.9 68.7L0 32.4L-49.9 68.7L-30.9 10L-80.8 -26.2L-19.1 -26.2Z" transform="translate(1145 433)"></path><path d="M0 -55.7L12.5 -17.2L53 -17.2L20.2 6.6L32.7 45.1L0 21.3L-32.7 45.1L-20.2 6.6L-53 -17.2L-12.5 -17.2Z" transform="translate(233 718)"></path><path d="M0 -58.5L13.1 -18.1L55.7 -18.1L21.3 6.9L34.4 47.3L0 22.4L-34.4 47.3L-21.3 6.9L-55.7 -18.1L-13.1 -18.1Z" transform="translate(568 790)"></path><path d="M0 -83.1L18.6 -25.7L79 -25.7L30.2 9.8L48.8 67.2L0 31.7L-48.8 67.2L-30.2 9.8L-79 -25.7L-18.6 -25.7Z" transform="translate(857 51)"></path><path d="M0 -62.3L14 -19.2L59.2 -19.2L22.6 7.4L36.6 50.4L0 23.8L-36.6 50.4L-22.6 7.4L-59.2 -19.2L-14 -19.2Z" transform="translate(36 21)"></path><path d="M0 -54.7L12.3 -16.9L52.1 -16.9L19.9 6.5L32.2 44.3L0 20.9L-32.2 44.3L-19.9 6.5L-52.1 -16.9L-12.3 -16.9Z" transform="translate(575 553)"></path></g></svg>